<svg width="79" height="115" viewBox="0 0 79 115" fill="none" xmlns="http://www.w3.org/2000/svg">
<path d="M34.149 0.122612C33.6846 0.171494 32.0471 0.513657 30.5073 0.831383C19.1424 3.37321 9.43952 10.9254 4.20923 21.337C1.93626 25.9074 0.714227 30.2334 0.152094 35.6348C-1.33878 50.5924 8.16861 73.4444 27.0123 100.158C30.3118 104.826 35.8109 112.061 36.9841 113.283C37.8639 114.211 38.1083 114.333 39.0371 114.333C39.9658 114.333 40.2102 114.211 41.0901 113.283C42.2632 112.061 47.7624 104.826 51.0618 100.158C62.4512 84.0027 70.6876 68.7762 74.7937 56.2871C78.7041 44.409 79.0708 35.757 76.0401 26.5918C71.3964 12.5384 59.0784 2.29782 44.2918 0.19593C42.6543 -0.0240326 35.9576 -0.0729141 34.149 0.122612Z" fill="#E0FBFC"/>
<path d="M22.3263 30.9432C21.6321 31.4182 21.4128 32.1398 21.76 32.8158C22.0066 33.3091 22.4633 33.5832 23.1393 33.638C23.4773 33.6745 23.7331 33.7476 23.8062 33.8389C23.9341 33.976 26.5649 44.9379 28.0722 51.5607C28.4741 53.342 28.9035 55.0137 29.0314 55.2877C29.4881 56.2835 30.6117 57.1787 31.7262 57.4162C32.0916 57.4893 34.7772 57.5075 41.8659 57.4893C51.1196 57.4619 51.5215 57.4527 51.9143 57.2883C53.111 56.7767 53.9606 55.8815 54.2894 54.7762C54.3899 54.4473 55.075 51.5242 55.8058 48.2813C57.0756 42.6815 57.1395 42.3527 57.0938 41.6402C57.0116 40.2334 56.2352 39.0732 54.9471 38.4429L54.2529 38.0958L41.0712 38.0684C33.8181 38.0593 27.8895 38.0319 27.8895 38.0227C27.8895 38.0045 27.6246 36.8717 27.2957 35.5015C26.9486 34.0582 26.6015 32.825 26.4644 32.56C26.1539 31.9389 25.5784 31.3816 24.9206 31.0528C24.4639 30.8335 24.2447 30.7879 23.5047 30.7605C22.71 30.7331 22.6095 30.7422 22.3263 30.9432Z" fill="#3D5A80"/>
<path d="M32.987 59.5171C31.2423 59.7911 29.7624 61.0517 29.1686 62.7691C28.383 65.0254 29.4701 67.6472 31.6351 68.6794C32.8957 69.2732 34.1654 69.3462 35.426 68.8895C36.6684 68.4419 37.5454 67.638 38.13 66.4139C39.0526 64.5139 38.6781 62.3672 37.1617 60.869C36.0929 59.8094 34.4852 59.2887 32.987 59.5171Z" fill="#3D5A80"/>
<path d="M48.6624 59.5172C46.6892 59.8095 45.1454 61.2254 44.643 63.1894C44.442 63.9476 44.506 65.2174 44.7709 65.9573C45.5017 67.967 47.5388 69.3098 49.6307 69.1728C52.1336 69.0083 54.0428 67.0991 54.1799 64.6327C54.2255 63.6736 54.0976 63.025 53.7048 62.2028C52.8005 60.321 50.6995 59.2066 48.6624 59.5172Z" fill="#3D5A80"/>
</svg>
