<svg width="35" height="51" viewBox="0 0 35 51" fill="none" xmlns="http://www.w3.org/2000/svg">
<path d="M15.2326 0.0546379C15.0255 0.0764427 14.295 0.229073 13.6082 0.370796C8.53875 1.50461 4.21063 4.87335 1.87759 9.51763C0.863694 11.5563 0.318591 13.486 0.0678436 15.8953C-0.597182 22.5674 3.64372 32.7608 12.0492 44.6768C13.521 46.7591 15.974 49.9861 16.4973 50.5312C16.8897 50.9455 16.9988 51 17.413 51C17.8273 51 17.9363 50.9455 18.3288 50.5312C18.8521 49.9861 21.3051 46.7591 22.7768 44.6768C27.8572 37.4705 31.5312 30.6785 33.3628 25.1076C35.1071 19.8092 35.2706 15.9499 33.9188 11.8616C31.8474 5.59289 26.3527 1.02492 19.757 0.0873451C19.0265 -0.0107727 16.0394 -0.0325775 15.2326 0.0546379Z" fill="#3D5A80"/>
<path d="M9.95882 13.8028C9.64914 14.0147 9.55134 14.3366 9.70618 14.6381C9.8162 14.8581 10.0199 14.9804 10.3215 15.0048C10.4722 15.0211 10.5863 15.0537 10.6189 15.0945C10.676 15.1556 11.8495 20.0453 12.5218 22.9995C12.7011 23.7941 12.8926 24.5398 12.9497 24.662C13.1534 25.1062 13.6546 25.5055 14.1517 25.6114C14.3147 25.644 15.5127 25.6522 18.6747 25.644C22.8025 25.6318 22.9818 25.6277 23.157 25.5544C23.6908 25.3262 24.0697 24.9269 24.2164 24.4338C24.2612 24.2871 24.5668 22.9832 24.8928 21.5367C25.4592 19.0388 25.4877 18.8922 25.4674 18.5743C25.4307 17.9468 25.0843 17.4293 24.5098 17.1482L24.2001 16.9933L18.3202 16.9811C15.0849 16.977 12.4403 16.9648 12.4403 16.9607C12.4403 16.9526 12.3222 16.4473 12.1755 15.8361C12.0206 15.1923 11.8658 14.6422 11.8047 14.524C11.6661 14.2469 11.4094 13.9984 11.1161 13.8517C10.9123 13.7539 10.8145 13.7335 10.4845 13.7213C10.13 13.7091 10.0851 13.7131 9.95882 13.8028Z" fill="#E0FBFC"/>
<path d="M14.714 26.5486C13.9357 26.6708 13.2756 27.2331 13.0107 27.9992C12.6603 29.0056 13.1452 30.1751 14.1109 30.6356C14.6732 30.9004 15.2396 30.933 15.802 30.7293C16.3561 30.5296 16.7473 30.171 17.0081 29.625C17.4196 28.7775 17.2526 27.8199 16.5762 27.1516C16.0994 26.679 15.3823 26.4467 14.714 26.5486Z" fill="#E0FBFC"/>
<path d="M21.7064 26.5486C20.8263 26.679 20.1376 27.3105 19.9135 28.1866C19.8239 28.5248 19.8524 29.0912 19.9706 29.4213C20.2965 30.3177 21.2052 30.9167 22.1383 30.8556C23.2548 30.7822 24.1064 29.9306 24.1676 28.8304C24.1879 28.4026 24.1309 28.1133 23.9557 27.7465C23.5523 26.9071 22.6151 26.41 21.7064 26.5486Z" fill="#E0FBFC"/>
</svg>
